<svg width="26" height="28" viewBox="0 0 26 28" fill="none" xmlns="http://www.w3.org/2000/svg">
<g clip-path="url(#clip0_12_147)">
<path d="M7.07071 12.7273H18.3838V8.90909C18.3838 7.50379 17.8314 6.30398 16.7266 5.30966C15.6218 4.31534 14.2887 3.81818 12.7273 3.81818C11.1658 3.81818 9.8327 4.31534 8.7279 5.30966C7.62311 6.30398 7.07071 7.50379 7.07071 8.90909V12.7273ZM25.4545 14.6364V26.0909C25.4545 26.6212 25.2483 27.072 24.8359 27.4432C24.4234 27.8144 23.9226 28 23.3333 28H2.12121C1.53199 28 1.03114 27.8144 0.618687 27.4432C0.206229 27.072 0 26.6212 0 26.0909V14.6364C0 14.1061 0.206229 13.6553 0.618687 13.2841C1.03114 12.9129 1.53199 12.7273 2.12121 12.7273H2.82828V8.90909C2.82828 6.4697 3.80051 4.375 5.74495 2.625C7.68939 0.875 10.0168 0 12.7273 0C15.4377 0 17.7652 0.875 19.7096 2.625C21.654 4.375 22.6263 6.4697 22.6263 8.90909V12.7273H23.3333C23.9226 12.7273 24.4234 12.9129 24.8359 13.2841C25.2483 13.6553 25.4545 14.1061 25.4545 14.6364Z" fill="#AAAAAA"/>
</g>
<defs>
<clipPath id="clip0_12_147">
<rect width="25.4545" height="28" fill="white"/>
</clipPath>
</defs>
</svg>
