<svg width="50" height="50" viewBox="0 0 50 50" fill="none" xmlns="http://www.w3.org/2000/svg">
<path d="M9.375 46.875H40.625V39.0625C40.6217 36.1627 39.4683 33.3826 37.4178 31.3322C35.3674 29.2817 32.5873 28.1283 29.6875 28.125H20.3125C17.4127 28.1283 14.6326 29.2817 12.5822 31.3322C10.5317 33.3826 9.37831 36.1627 9.375 39.0625V46.875ZM14.0625 14.0625C14.0625 16.2257 14.704 18.3404 15.9058 20.139C17.1076 21.9377 18.8158 23.3396 20.8144 24.1674C22.813 24.9953 25.0121 25.2119 27.1338 24.7898C29.2555 24.3678 31.2043 23.3261 32.734 21.7965C34.2636 20.2668 35.3053 18.318 35.7273 16.1963C36.1494 14.0746 35.9328 11.8755 35.1049 9.8769C34.2771 7.87833 32.8752 6.17013 31.0765 4.9683C29.2779 3.76647 27.1632 3.125 25 3.125C22.0992 3.125 19.3172 4.27734 17.266 6.32852C15.2148 8.3797 14.0625 11.1617 14.0625 14.0625Z" fill="white"/>
</svg>
