<svg width="141" height="94" viewBox="0 0 141 94" fill="none" xmlns="http://www.w3.org/2000/svg">
<g clip-path="url(#clip0_12_150)">
<path d="M128.203 93.5218L132.327 81.9548H136.959L140.993 93.5218H136.51L136.152 92.0572H133.014L132.656 93.5218H128.203ZM133.702 89.3075H135.435L135.076 87.9924C134.897 87.3348 134.777 86.8267 134.718 86.468C134.658 86.1094 134.628 85.7806 134.598 85.4518H134.538C134.508 85.7806 134.478 86.1094 134.419 86.468C134.359 86.8267 134.239 87.3348 134.06 87.9924L133.702 89.3075ZM123.213 93.5218V81.9548H127.456V93.5218H123.213ZM112.306 92.2366L113.62 89.0086C114.218 89.427 114.756 89.7259 115.204 89.9052C115.682 90.0846 116.101 90.2041 116.519 90.2041C116.818 90.2041 117.027 90.1444 117.177 90.0547C117.356 89.9351 117.416 89.8156 117.416 89.6064C117.416 89.2776 116.997 89.0385 116.19 88.8591C115.921 88.7994 115.712 88.7695 115.563 88.7097C114.696 88.5005 114.039 88.1119 113.591 87.5739C113.142 87.0359 112.903 86.3784 112.903 85.5714C112.903 84.3161 113.352 83.3297 114.248 82.5526C115.144 81.7755 116.31 81.387 117.744 81.387C118.402 81.387 119.059 81.4766 119.717 81.656C120.344 81.8353 121.001 82.1043 121.659 82.4331L120.404 85.4518C120.015 85.1529 119.597 84.9437 119.209 84.7644C118.82 84.6149 118.402 84.5253 118.043 84.5253C117.744 84.5253 117.535 84.5851 117.386 84.6747C117.236 84.7644 117.147 84.9138 117.147 85.0932C117.147 85.4219 117.714 85.7208 118.88 85.9599C119.059 85.9898 119.209 86.0496 119.298 86.0496C120.105 86.2289 120.733 86.5876 121.181 87.1555C121.629 87.6935 121.868 88.3809 121.868 89.158C121.868 90.4432 121.42 91.4893 120.493 92.2963C119.567 93.1033 118.372 93.5218 116.878 93.5218C116.131 93.5218 115.354 93.4022 114.607 93.193C113.86 92.9838 113.083 92.655 112.336 92.2366H112.306ZM103.61 93.5218V81.9548H111.349V85.0932H107.704V86.199H111.021V89.158H107.704V90.3835H111.439V93.5218H103.61ZM89.7145 93.5218V81.9548H93.7785L97.3644 87.9924C97.3046 87.7234 97.2748 87.4245 97.2748 87.0957C97.2449 86.7669 97.2449 86.3485 97.2449 85.8105V81.925H101.249V93.4919H97.1552L93.5992 87.4843C93.6291 87.7533 93.659 88.0223 93.6889 88.3211C93.7187 88.62 93.7187 88.9488 93.7187 89.3075V93.4919H89.7145V93.5218ZM87.8618 87.7533C87.8618 88.5901 87.7124 89.3971 87.4135 90.1145C87.1147 90.8318 86.6665 91.4893 86.0987 92.0572C85.5309 92.6251 84.8436 93.0436 84.0966 93.3424C83.3495 93.6413 82.5427 93.7908 81.6761 93.7908C80.8095 93.7908 80.0027 93.6413 79.2556 93.3424C78.5085 93.0436 77.8212 92.5952 77.2535 92.0273C76.6857 91.4595 76.2375 90.8318 75.9386 90.1145C75.6398 89.3971 75.4904 88.5901 75.4904 87.7234C75.4904 86.8566 75.6398 86.0795 75.9386 85.3323C76.2375 84.6149 76.6558 83.9574 77.2535 83.3895C77.8212 82.8216 78.5085 82.4032 79.2556 82.1043C80.0027 81.8054 80.8095 81.656 81.6761 81.656C82.5427 81.656 83.3495 81.8054 84.0966 82.1043C84.8436 82.4032 85.5309 82.8216 86.0987 83.3895C86.6665 83.9574 87.0848 84.6149 87.3836 85.3323C87.6825 86.0795 87.8319 86.8566 87.8319 87.7234L87.8618 87.7533ZM81.6761 89.9351C82.2737 89.9351 82.722 89.7259 83.0806 89.3374C83.4392 88.9488 83.6185 88.4108 83.6185 87.7533C83.6185 87.0957 83.4392 86.5577 83.0806 86.1692C82.722 85.7806 82.2439 85.5714 81.6761 85.5714C81.0784 85.5714 80.6302 85.7806 80.2716 86.1692C79.913 86.5876 79.7337 87.0957 79.7337 87.7533C79.7337 88.4108 79.913 88.9488 80.2716 89.3374C80.6302 89.7259 81.1083 89.9351 81.6761 89.9351ZM63.0593 93.5218V81.9548H66.436C67.5118 81.9548 68.4083 82.0146 69.1852 82.1342C69.9323 82.2537 70.5598 82.4331 71.0379 82.6722C72.0539 83.2102 72.801 83.8976 73.3389 84.7644C73.8768 85.6312 74.1457 86.6175 74.1457 87.7234C74.1457 88.8292 73.8768 89.8156 73.3389 90.6823C72.801 91.5491 72.0539 92.2366 71.0379 92.7746C70.5598 93.0137 69.9323 93.2229 69.1852 93.3424C68.4381 93.462 67.4221 93.5218 66.1671 93.5218H63.1191H63.0593ZM67.1831 89.9949C68.1094 89.9949 68.7967 89.8156 69.245 89.4569C69.6633 89.0982 69.9024 88.5304 69.9024 87.7533C69.9024 87.006 69.6932 86.4382 69.2748 86.0795C68.8565 85.7208 68.229 85.5415 67.3624 85.5415H67.1831V90.0248V89.9949ZM49.134 93.5218V81.9548H53.1981L56.784 87.9924C56.7242 87.7234 56.6943 87.4245 56.6943 87.0957C56.6644 86.7669 56.6644 86.3485 56.6644 85.8105V81.925H60.6687V93.4919H56.5748L53.0188 87.4843C53.0486 87.7533 53.0785 88.0223 53.1084 88.3211C53.1383 88.62 53.1383 88.9488 53.1383 89.3075V93.4919H49.134V93.5218ZM42.6495 93.5218V81.9548H46.863V93.5218H42.6495ZM25.9153 92.7148L27.2302 89.4868C27.8278 89.9052 28.3657 90.2041 28.8139 90.3835C29.2921 90.5628 29.7104 90.6823 30.1288 90.6823C30.4276 90.6823 30.6368 90.6226 30.7862 90.5329C30.9655 90.4133 31.0252 90.2938 31.0252 90.0846C31.0252 89.7558 30.6069 89.5167 29.8001 89.3374C29.5311 89.2776 29.3219 89.2477 29.1725 89.1879C28.3059 88.9787 27.6485 88.5901 27.2003 88.0521C26.752 87.5141 26.513 86.8566 26.513 86.0496C26.513 84.7943 26.9612 83.8079 27.8577 83.0308C28.7542 82.2537 29.9196 81.8652 31.354 81.8652C32.0114 81.8652 32.6688 81.9548 33.3262 82.1342C33.9537 82.3135 34.6111 82.5825 35.2686 82.9113L34.0135 85.93C33.625 85.6312 33.2067 85.4219 32.8182 85.2426C32.4297 85.0932 32.0114 85.0035 31.6528 85.0035C31.354 85.0035 31.1448 85.0633 30.9954 85.1529C30.8459 85.2426 30.7563 85.392 30.7563 85.5714C30.7563 85.9002 31.3241 86.199 32.4895 86.4382C32.6688 86.468 32.8182 86.5278 32.9078 86.5278C33.7147 86.7072 34.3422 87.0658 34.7904 87.6337C35.2387 88.1717 35.4777 88.8591 35.4777 89.6362C35.4777 90.9215 35.0295 91.9676 34.1031 92.7746C33.1768 93.5816 31.9815 94 30.4874 94C29.7403 94 28.9634 93.8804 28.2163 93.6712C27.4692 93.462 26.6923 93.1332 25.9452 92.7148H25.9153ZM25.0487 87.9326C25.0487 88.7695 24.8993 89.5765 24.6005 90.2938C24.3017 91.0111 23.8534 91.6687 23.2857 92.2664C22.7179 92.8343 22.0306 93.2528 21.2835 93.5517C20.5365 93.8505 19.7297 94 18.8631 94C17.9965 94 17.1896 93.8505 16.4426 93.5517C15.6955 93.2528 15.0082 92.8044 14.4405 92.2366C13.8727 91.6687 13.4244 91.041 13.1256 90.3237C12.8268 89.6064 12.6774 88.7994 12.6774 87.9326C12.6774 87.0658 12.8268 86.2887 13.1256 85.5415C13.4244 84.8242 13.8428 84.1666 14.4405 83.5987C15.0082 83.0308 15.6955 82.6124 16.4426 82.3135C17.1896 82.0146 17.9965 81.8652 18.8631 81.8652C19.7297 81.8652 20.5365 82.0146 21.2835 82.3135C22.0306 82.6124 22.7179 83.0308 23.2857 83.5987C23.8534 84.1666 24.2718 84.8242 24.5706 85.5415C24.8694 86.2887 25.0189 87.0658 25.0189 87.9326H25.0487ZM18.8631 90.1145C19.4607 90.1145 19.909 89.9052 20.2675 89.5167C20.6261 89.1281 20.8054 88.5901 20.8054 87.9326C20.8054 87.275 20.6261 86.737 20.2675 86.3485C19.909 85.9599 19.4308 85.7507 18.8631 85.7507C18.2654 85.7507 17.8172 85.9599 17.4586 86.3485C17.1 86.7669 16.9207 87.275 16.9207 87.9326C16.9207 88.5901 17.1 89.1281 17.4586 89.5167C17.8172 89.9052 18.2953 90.1145 18.8631 90.1145ZM5.74465 85.3622V87.275H6.40206C6.79053 87.275 7.08936 87.1854 7.29854 87.0359C7.50771 86.8566 7.62724 86.6474 7.62724 86.3186C7.62724 86.0197 7.50771 85.7806 7.29854 85.6013C7.08936 85.4219 6.79053 85.3323 6.40206 85.3323H5.74465V85.3622ZM1.5611 93.7011V82.1342H6.52159C8.25478 82.1342 9.53972 82.463 10.3466 83.1504C11.1534 83.8378 11.5717 84.8839 11.5717 86.3485C11.5717 87.7234 11.2131 88.7097 10.496 89.3374C9.77878 89.965 8.61337 90.2938 7.02959 90.2938H5.71476V93.7011H1.5611Z" fill="#4C4C4C"/>
<path d="M50.7776 55.5034H63.2386L59.8619 57.8048H52.2418L51.0166 55.9517C50.927 55.8023 50.8374 55.6528 50.7776 55.5333V55.5034ZM111.618 57.5657L97.8127 57.6255C95.2129 64.5896 88.3399 70.5673 83.469 73.6757C83.2001 73.7056 83.0208 73.7355 82.8415 73.7654C82.5726 73.7654 82.3036 73.7654 82.0347 73.7654C81.6462 73.7654 81.2876 73.7654 80.8992 73.7355C80.7796 73.7056 80.6302 73.7056 80.4509 73.6757C77.4925 71.8824 73.4584 69.1326 71.3069 66.0541L73.7572 65.008C75.7295 67.6382 78.1201 69.5511 80.5406 71.9422L80.6003 62.4376L82.8415 61.5708L82.9013 72.1514C87.6526 68.1762 92.1051 62.8261 95.0037 57.6255L93.9279 57.5657L99.0677 55.2942L113.053 55.2643C112.545 56.2207 112.276 56.669 111.678 57.5657H111.618ZM82.7817 43.1295L80.5107 44.5641V40.8878H82.7817V43.1593V43.1295ZM66.7348 53.1123C65.3005 49.2865 64.3442 45.4608 64.1351 41.0372H61.9536C62.1628 45.8493 62.9697 50.0636 64.5235 54.5469L66.7348 53.1123ZM82.722 16.4986L82.7519 3.61658C86.786 6.75489 91.0293 11.2382 94.0176 16.4986H96.7369C93.2705 8.51833 86.2481 3.58669 83.2001 2.30148C83.0208 2.27159 82.8415 2.2417 82.6025 2.2417C82.3933 2.2417 82.1841 2.2417 81.9749 2.2417C81.4968 2.2417 81.0486 2.2417 80.5704 2.2417C80.4808 2.2417 80.3613 2.27159 80.2716 2.27159C76.2972 4.27413 69.6334 9.53454 66.9141 16.6481H69.8725C72.3826 11.1784 76.4765 7.29289 80.5107 3.94536L80.4808 16.5285H82.6921L82.722 16.4986Z" fill="#E67015"/>
<path d="M44.2632 41.7546L46.3848 41.5752C47.2813 49.7647 50.1799 55.5631 54.8715 61.511L53.1981 62.9158C47.7296 56.5495 44.4425 49.0773 44.2632 41.7844V41.7546ZM64.1649 69.0131L61.7743 70.2086C67.6014 73.855 74.6238 75.9174 82.0048 75.9174C98.5896 75.6185 112.814 64.7689 117.864 49.7348L115.115 50.6016C110.274 63.9918 97.0357 73.7654 82.0048 73.7654C75.7295 73.7654 69.245 71.8226 64.1351 68.9832L64.1649 69.0131ZM17.4287 26.0032L18.624 25.0468L80.5704 22.8649C82.4231 22.9546 84.6345 24.3892 85.2919 25.6744L17.4287 26.0032ZM12.8268 29.56L86.7561 27.3183C88.1307 27.3183 90.3121 28.6932 91.5971 30.0681L11.4821 30.5762L12.8567 29.56H12.8268ZM6.91006 34.2525L92.4039 31.8913C94.7049 31.8016 97.2449 33.5352 97.6632 34.4916L5.655 35.3285L6.93994 34.2824L6.91006 34.2525ZM110.513 16.6181C104.058 8.12975 93.3303 2.21178 82.0347 2.21178C70.6196 2.00256 59.2642 7.95042 53.0785 16.7377L50.419 16.7975C57.2621 6.78476 69.0059 0.0299072 82.0347 0.0299072C94.8841 0.0299072 106.389 6.63531 113.232 16.5584L110.513 16.6181ZM129.697 37.9288C130.474 37.9288 130.982 38.5565 130.982 39.3933C130.982 40.2003 130.474 40.6786 129.697 40.6786C128.92 40.6786 128.233 40.2302 128.233 39.3933C128.233 38.5863 128.92 37.9288 129.697 37.9288ZM24.8097 20.0553L113.232 17.6941C123.571 20.0553 123.332 28.0655 118.282 34.641L127.934 34.5514C132.745 34.3422 135.345 38.8255 139.977 43.2789C126.769 44.7434 114.756 48.0013 101.1 52.3949C81.9749 58.6716 64.2247 66.4127 44.9206 74.6321C54.9312 63.6032 63.8063 57.8646 72.7412 51.7673C79.5544 47.5829 87.9514 42.8903 94.2566 39.5129H98.7091C93.4498 42.1431 85.8596 46.6862 78.9568 50.6315C71.6356 54.8159 62.0433 61.2719 55.4691 67.7876C72.3229 60.8236 86.6067 54.786 103.251 49.5256C112.545 46.6563 123.392 43.249 134.807 41.3959C133.731 38.6162 131.371 36.8528 127.247 36.8528H113.352C116.31 33.6248 118.79 28.8725 118.76 25.256C118.73 22.9844 115.443 20.7129 112.963 20.7428L23.7937 21.1015L24.8396 20.1151L24.8097 20.0553ZM0.00720215 39.9911L1.11285 39.0945L95.422 36.4643C97.4242 36.4643 98.8884 36.0757 100.054 36.4643C101.697 37.0919 102.893 37.9288 103.879 39.0945L0.00720215 40.021V39.9911Z" fill="#E67015"/>
</g>
<defs>
<clipPath id="clip0_12_150">
<rect width="141" height="94" fill="white"/>
</clipPath>
</defs>
</svg>
